<svg xmlns="http://www.w3.org/2000/svg" width="20" height="20" viewBox="0 0 689.333 689.333"><defs><clipPath id="a" clipPathUnits="userSpaceOnUse"><path d="M-172.435 33.013h517v-517h-517Z"/></clipPath><clipPath id="c" clipPathUnits="userSpaceOnUse"><path d="M-57.242 0H139.38v-278.757H-57.24Z"/></clipPath><clipPath id="b" clipPathUnits="userSpaceOnUse"><path d="M0 0h689.333v689.333H0Z"/></clipPath><clipPath id="e" clipPathUnits="userSpaceOnUse"><path d="M-28.866 143.35h86.108V0h-86.108z"/></clipPath><clipPath id="d" clipPathUnits="userSpaceOnUse"><path d="M0 0h689.333v689.333H0Z"/></clipPath><clipPath id="g" clipPathUnits="userSpaceOnUse"><path d="M-28.866 0h86.108v-143.344h-86.108z"/></clipPath><clipPath id="f" clipPathUnits="userSpaceOnUse"><path d="M0 0h689.333v689.333H0Z"/></clipPath><clipPath id="h" clipPathUnits="userSpaceOnUse"><path d="M-33.078 344.586h517v-517h-517Z"/></clipPath><clipPath id="i" clipPathUnits="userSpaceOnUse"><path d="M-172.435 33.013h517v-517h-517Z"/></clipPath><clipPath id="k" clipPathUnits="userSpaceOnUse"><path d="M-28.89 86.086h197.113v-254.353H-28.89Z"/></clipPath><clipPath id="j" clipPathUnits="userSpaceOnUse"><path d="M0 0h689.333v689.333H0Z"/></clipPath><clipPath id="l" clipPathUnits="userSpaceOnUse"><path d="M-397.922 258.505h517v-517h-517Z"/></clipPath><clipPath id="m" clipPathUnits="userSpaceOnUse"><path d="M-397.922 258.502h517v-517h-517Z"/></clipPath></defs><path d="M0 0v164.285l-82.14-82.138Z" style="fill:#000;fill-opacity:1;fill-rule:nonzero;stroke:none" transform="matrix(1.33333 0 0 -1.33333 268.402 454.196)"/><path d="M0 0c-.007.004-.017.019-.027.024a101 101 0 0 1-3.509 3.334c-.559.513-1.144.993-1.718 1.487-.64.557-1.275 1.123-1.926 1.66-.738.6-1.496 1.18-2.25 1.766-.508.398-1.009.801-1.523 1.18a110 110 0 0 1-2.538 1.804c-.455.321-.909.647-1.372.959a96 96 0 0 1-2.662 1.703c-.468.293-.931.595-1.401.878a90 90 0 0 1-2.656 1.526c-.52.293-1.036.59-1.559.873-.837.446-1.691.868-2.543 1.3-.602.302-1.206.609-1.815.897-.773.365-1.557.711-2.341 1.056-.713.316-1.423.633-2.14.93-.691.288-1.394.552-2.094.826-.823.321-1.651.638-2.48.935-.61.221-1.227.418-1.841.624-.93.312-1.859.623-2.796.902-.542.163-1.092.311-1.641.465a95 95 0 0 1-3.032.82c-.506.125-1.02.235-1.531.356-1.052.239-2.106.484-3.161.685-.523.106-1.053.193-1.581.288a95 95 0 0 1-3.135.528c-.607.086-1.221.154-1.83.235-.972.12-1.946.249-2.919.351-.814.076-1.634.124-2.452.182-.782.057-1.562.129-2.346.167a99 99 0 0 1-4.836.125h-.034q-2.453-.001-4.874-.125c-.77-.038-1.539-.11-2.307-.163-.833-.062-1.665-.11-2.493-.191-.964-.092-1.926-.226-2.888-.346-.621-.081-1.242-.149-1.859-.235a95 95 0 0 1-3.111-.528c-.535-.095-1.077-.182-1.607-.288a86 86 0 0 1-3.123-.681c-.525-.125-1.053-.235-1.576-.364-1-.25-1.996-.528-2.991-.807-.562-.163-1.125-.307-1.682-.474-.924-.279-1.837-.586-2.754-.893-.628-.206-1.259-.412-1.883-.638-.817-.287-1.629-.604-2.439-.916-.712-.278-1.43-.552-2.135-.845s-1.403-.604-2.104-.916c-.794-.35-1.59-.7-2.375-1.07-.597-.283-1.192-.585-1.789-.882-.859-.432-1.723-.864-2.567-1.32-.515-.273-1.021-.566-1.532-.853-.9-.5-1.797-1.008-2.68-1.541-.465-.278-.926-.575-1.384-.863-.9-.566-1.799-1.128-2.677-1.713-.461-.312-.909-.638-1.363-.954-.856-.595-1.712-1.19-2.549-1.809-.511-.379-1.01-.782-1.516-1.176-.753-.585-1.514-1.17-2.25-1.77-.663-.542-1.308-1.118-1.958-1.679-.561-.489-1.137-.964-1.688-1.463a102 102 0 0 1-3.539-3.368 101 101 0 0 1-3.365-3.536c-.494-.547-.967-1.113-1.449-1.674-.568-.658-1.144-1.305-1.693-1.972-.6-.729-1.173-1.482-1.754-2.231-.398-.508-.806-1.021-1.192-1.54-.614-.825-1.204-1.679-1.795-2.523-.321-.461-.652-.921-.966-1.387a111 111 0 0 1-1.705-2.657c-.293-.466-.591-.931-.873-1.406-.529-.868-1.03-1.765-1.531-2.658-.29-.518-.588-1.031-.868-1.554-.449-.84-.876-1.689-1.301-2.538-.302-.609-.611-1.209-.899-1.823-.37-.773-.713-1.555-1.058-2.337a93 93 0 0 1-.931-2.139c-.285-.696-.553-1.396-.825-2.097-.319-.825-.64-1.65-.935-2.48-.219-.61-.418-1.224-.621-1.833-.312-.935-.624-1.866-.905-2.806-.161-.542-.307-1.085-.46-1.622a91 91 0 0 1-.826-3.056c-.122-.499-.227-1.002-.345-1.497a99 99 0 0 1-.7-3.2c-.099-.503-.18-1.017-.272-1.525a103 103 0 0 1-.539-3.195c-.084-.571-.146-1.161-.221-1.747-.129-.992-.264-2-.362-3.003-.072-.758-.118-1.535-.175-2.307-.06-.825-.137-1.656-.178-2.49-.069-1.411-.098-2.84-.107-4.27-.003-.197-.015-.388-.015-.585 0-27.25 11.058-51.909 28.929-69.751l86.045-86.043 82.14 82.138v73.574C28.886-44.526 19.266-19.267 0 0" clip-path="url(#a)" style="fill:#000;fill-opacity:1;fill-rule:nonzero;stroke:none" transform="matrix(1.33333 0 0 -1.33333 229.913 44.017)"/><g clip-path="url(#b)"><path d="m0 0-57.241-57.239v-164.285L0-278.758l139.379 139.377Z" clip-path="url(#c)" style="fill:#000;fill-opacity:1;fill-rule:nonzero;stroke:none" transform="matrix(1.33333 0 0 -1.33333 344.724 158.831)"/></g><g clip-path="url(#d)"><path d="m0 0 57.241 57.239-86.107 86.11v-.005.005C-9.6 124.082.02 98.823 0 73.574Z" clip-path="url(#e)" style="fill:#000;fill-opacity:1;fill-rule:nonzero;stroke:none" transform="matrix(1.33333 0 0 -1.33333 268.402 235.15)"/></g><g clip-path="url(#f)"><path d="m0 0 57.241-57.239-86.107-86.105C-9.6-124.073.02-98.819 0-73.57Z" clip-path="url(#g)" style="fill:#000;fill-opacity:1;fill-rule:nonzero;stroke:none" transform="matrix(1.33333 0 0 -1.33333 268.402 454.196)"/></g><path d="m0 0 86.083 86.086L.038 172.129c-17.87 17.842-28.929 42.501-28.929 69.751V-69.698C-28.886-42.477-17.847-17.832 0 0" clip-path="url(#h)" style="fill:#000;fill-opacity:1;fill-rule:nonzero;stroke:none" transform="matrix(1.33333 0 0 -1.33333 44.103 459.448)"/><path d="M0 0a.1.1 0 0 1-.027.024C-.017.019-.007.004 0 0" clip-path="url(#i)" style="fill:#000;fill-opacity:1;fill-rule:nonzero;stroke:none" transform="matrix(1.33333 0 0 -1.33333 229.913 44.017)"/><g clip-path="url(#j)"><path d="M0 0c-17.847-17.832-28.886-42.477-28.891-69.698 0-.149.01-.288.01-.437.007-1.487.041-2.974.113-4.447.036-.743.105-1.492.16-2.24.06-.854.113-1.713.195-2.562.091-.931.215-1.862.333-2.792.082-.652.154-1.31.249-1.962.149-1.003.329-2.005.507-3.008.103-.571.196-1.142.307-1.718.199-1.007.429-2.01.659-3.012.13-.567.25-1.133.391-1.689.238-.965.507-1.919.776-2.879.17-.604.333-1.204.51-1.809.267-.877.559-1.75.852-2.628.22-.672.439-1.349.679-2.006.275-.777.575-1.55.873-2.317.292-.758.583-1.516.892-2.269.273-.657.564-1.31.854-1.967.372-.84.744-1.684 1.137-2.514.259-.547.537-1.089.809-1.636.455-.912.913-1.823 1.393-2.72.247-.461.511-.912.763-1.368.535-.954 1.075-1.909 1.638-2.854.24-.393.494-.787.741-1.18a96 96 0 0 1 1.845-2.874c.255-.384.525-.758.785-1.132a98 98 0 0 1 1.976-2.778c.305-.412.628-.811.94-1.219.662-.858 1.322-1.712 2.01-2.547.411-.509.847-.988 1.269-1.482.622-.729 1.233-1.454 1.872-2.164.724-.792 1.479-1.569 2.233-2.346q1.115-1.152 2.267-2.269c.769-.744 1.54-1.497 2.326-2.212.703-.633 1.435-1.247 2.154-1.866.497-.422.986-.863 1.49-1.276a86 86 0 0 1 2.54-1.996c.41-.316.813-.648 1.228-.955.907-.671 1.833-1.319 2.761-1.962.384-.268.763-.542 1.149-.796a94 94 0 0 1 2.857-1.838c.401-.249.799-.503 1.205-.748.93-.566 1.88-1.094 2.83-1.631.463-.254.921-.518 1.384-.773.887-.474 1.792-.93 2.694-1.376.556-.279 1.108-.562 1.67-.826a91 91 0 0 1 2.478-1.117c.666-.298 1.333-.595 2.005-.879.731-.302 1.477-.585 2.218-.873.787-.302 1.569-.604 2.361-.887.647-.235 1.302-.441 1.955-.662.892-.298 1.787-.595 2.689-.869.573-.177 1.156-.331 1.732-.489.981-.278 1.96-.552 2.948-.801.532-.129 1.07-.245 1.607-.37 1.029-.234 2.06-.47 3.094-.671.54-.11 1.089-.197 1.631-.293a99 99 0 0 1 3.09-.523c.619-.091 1.242-.158 1.864-.239.962-.12 1.924-.25 2.888-.346.813-.077 1.633-.124 2.451-.187.782-.057 1.567-.125 2.351-.168q2.285-.108 4.596-.115h.542c1.54.005 3.078.043 4.603.115.773.043 1.54.111 2.313.168.83.063 1.665.106 2.492.192.95.091 1.895.216 2.845.341.636.076 1.279.148 1.912.239a94 94 0 0 1 3.044.514c.561.1 1.123.192 1.679.302 1.02.201 2.037.437 3.051.671.55.12 1.104.241 1.651.375.976.244 1.945.513 2.914.787.588.167 1.183.326 1.765.503.895.269 1.78.566 2.668.859.657.221 1.321.432 1.974.667.787.288 1.569.59 2.349.887.745.288 1.494.576 2.23.883.672.278 1.336.576 2.001.869a77 77 0 0 1 2.483 1.122c.561.269 1.117.552 1.674.83.902.446 1.801.897 2.684 1.372.473.255.943.528 1.413.792.94.523 1.881 1.055 2.802 1.612.419.249.832.518 1.247.777.945.59 1.888 1.185 2.809 1.804.41.273.811.566 1.218.844.905.629 1.807 1.262 2.69 1.914.451.336.892.696 1.336 1.036.818.634 1.636 1.258 2.43 1.915.563.46 1.112.95 1.669 1.43.66.565 1.331 1.122 1.972 1.712a92 92 0 0 1 2.693 2.557c.277.269.564.523.836.796l.006.005c19.231 19.253 28.843 44.473 28.836 69.698V3.939L86.083 86.086Z" clip-path="url(#k)" style="fill:#000;fill-opacity:1;fill-rule:nonzero;stroke:none" transform="matrix(1.33333 0 0 -1.33333 44.103 459.448)"/></g><path d="m0 0-139.379-139.377 85.985-85.99c17.84-17.846 42.487-28.886 69.715-28.89 54.43.004 98.557 44.132 98.557 98.559 0 27.231-11.041 51.88-28.89 69.717L.003.004" clip-path="url(#l)" style="fill:#000;fill-opacity:1;fill-rule:nonzero;stroke:none" transform="matrix(1.33333 0 0 -1.33333 530.562 344.673)"/><path d="m0 0-139.379 139.374 85.985 85.99c17.84 17.847 42.487 28.886 69.715 28.891 54.43-.005 98.557-44.133 98.557-98.56 0-27.23-11.041-51.88-28.89-69.717L.003-.01" clip-path="url(#m)" style="fill:#000;fill-opacity:1;fill-rule:nonzero;stroke:none" transform="matrix(1.33333 0 0 -1.33333 530.562 344.67)"/></svg>